P3
# Created by GIMP version 2.10.14 PNM plug-in
76 51
255
120
140
164
120
140
164
122
142
166
124
144
168
125
145
169
127
147
172
127
147
172
129
149
174
130
150
175
131
151
176
132
152
177
133
153
178
133
153
179
134
154
181
135
155
182
135
156
184
136
157
186
137
158
187
138
159
188
138
159
188
139
160
189
139
160
189
139
160
189
140
161
190
141
162
191
141
162
191
141
162
191
141
162
191
142
163
192
142
163
192
142
163
192
142
163
192
142
162
191
142
161
191
142
161
191
143
163
190
141
161
187
139
159
187
140
159
189
140
159
189
139
161
186
139
161
185
138
159
183
138
158
183
137
157
182
136
157
181
135
157
180
134
156
180
134
154
181
132
152
179
131
151
177
131
151
176
129
149
173
128
148
172
126
146
170
125
145
169
124
143
167
123
143
167
122
142
166
120
140
164
118
139
161
118
139
160
116
137
158
116
134
156
114
132
154
113
132
151
112
131
148
111
130
147
109
128
145
108
127
144
106
124
141
104
121
137
103
120
136
101
118
134
100
117
133
82
97
110
120
140
164
121
141
165
123
143
167
125
145
169
126
146
170
128
148
173
129
149
174
130
150
175
131
151
176
132
152
177
133
153
178
134
154
179
135
155
181
136
156
183
137
157
184
137
158
187
138
159
188
138
159
188
139
160
189
140
161
190
140
161
190
141
162
191
141
162
191
141
162
191
142
163
192
142
163
192
142
163
192
142
163
192
143
164
193
143
164
193
143
164
193
143
164
193
143
164
193
144
163
193
144
163
193
143
162
193
143
162
192
142
161
192
142
161
191
141
160
190
140
161
189
140
161
189
138
159
187
139
158
187
138
157
186
136
157
185
136
157
184
135
156
184
135
155
182
134
154
181
132
152
178
131
151
176
130
150
175
128
148
172
128
148
172
126
146
170
125
145
169
124
144
168
122
142
166
121
141
165
119
140
162
118
139
160
116
137
158
117
135
157
115
133
155
114
133
152
113
132
149
111
130
147
109
128
145
108
127
144
107
125
141
105
122
138
104
121
137
102
119
135
100
117
133
84
98
111
123
142
166
125
144
168
126
145
170
127
146
171
129
148
173
130
150
175
131
151
176
132
152
178
133
153
179
134
154
180
135
155
181
135
157
184
136
158
186
137
158
187
138
159
188
139
160
188
140
160
190
142
162
192
142
163
192
142
163
192
142
163
193
143
164
194
143
164
194
144
165
195
144
165
195
144
165
195
145
166
196
145
166
196
146
167
197
146
167
197
146
167
197
146
167
197
146
167
197
146
166
196
146
166
197
145
165
197
145
165
197
145
164
196
145
164
195
144
163
194
143
163
193
143
163
192
142
162
191
142
161
191
141
160
190
139
159
189
139
159
188
138
158
187
137
156
185
136
155
184
135
154
181
133
153
179
132
152
178
130
150
175
130
150
174
129
148
173
128
147
172
127
145
170
126
145
169
124
143
167
123
142
164
121
140
162
119
139
160
119
137
159
117
135
157
116
134
155
114
133
152
113
131
150
111
130
147
110
129
146
108
126
143
107
124
141
106
123
140
104
121
137
103
120
136
85
100
113
127
145
169
128
146
170
130
147
172
130
147
173
131
148
174
131
151
176
132
152
177
134
154
180
135
155
182
136
156
183
138
156
185
140
157
185
142
158
186
142
158
189
143
159
189
142
162
188
143
162
192
143
163
194
143
164
193
144
165
194
145
166
196
145
166
197
145
166
197
146
167
198
146
167
198
147
168
199
147
168
199
148
169
200
148
169
200
148
169
200
148
169
200
148
169
200
148
169
200
148
169
200
148
169
200
147
168
199
147
168
199
147
167
198
147
166
198
146
165
197
146
165
195
145
164
194
145
164
194
144
163
193
143
162
192
142
161
191
141
160
190
140
159
189
138
157
187
138
157
187
136
156
184
135
155
182
134
154
181
133
153
178
132
152
177
132
150
175
131
148
174
129
146
172
127
145
169
127
145
169
125
143
166
124
142
164
122
140
162
120
138
160
119
137
159
118
136
158
116
134
156
115
133
154
113
132
149
111
130
147
110
128
145
109
126
144
107
124
142
106
123
139
105
122
138
86
101
115
128
146
170
129
147
171
131
148
173
132
149
175
132
149
175
132
152
177
133
153
178
135
155
181
137
157
184
138
157
184
135
154
176
127
141
159
133
144
163
138
151
173
136
150
171
143
161
186
144
163
193
144
164
195
145
166
195
145
166
195
146
167
198
146
167
198
147
167
198
147
168
199
147
168
199
148
169
200
149
170
200
149
170
201
149
170
201
149
170
201
149
170
201
150
171
202
150
171
202
150
171
202
149
170
201
149
170
201
149
170
201
148
168
200
148
167
199
148
167
199
147
166
197
147
166
196
146
165
195
145
164
194
144
163
193
144
163
193
142
161
191
141
160
190
140
159
189
140
159
189
137
157
185
137
157
184
136
156
182
134
154
179
133
153
178
133
151
177
132
149
175
131
148
174
129
147
171
128
146
170
126
144
167
124
142
164
123
141
163
121
139
161
121
139
161
119
137
159
117
135
157
116
134
155
114
133
151
112
131
148
110
128
146
110
127
145
109
126
144
107
124
140
106
123
139
87
102
115
126
146
171
128
148
173
129
149
175
130
150
176
132
152
178
134
153
180
136
154
184
139
157
184
139
154
179
118
125
142
87
79
75
93
84
78
95
86
80
95
86
82
95
86
81
97
93
94
123
132
143
148
165
192
146
166
197
146
166
197
146
167
199
149
167
198
136
143
166
133
132
142
141
147
164
154
169
199
148
171
202
151
170
202
151
171
204
151
171
204
151
171
204
152
172
205
152
172
204
152
173
204
151
172
203
151
171
203
150
170
203
150
170
202
150
171
202
149
170
201
148
169
200
147
168
199
147
167
198
147
166
198
146
165
197
145
164
196
143
162
194
143
162
193
142
161
191
141
160
190
141
158
187
140
157
185
139
156
184
136
156
183
134
154
181
134
152
178
133
150
176
132
149
175
131
149
173
129
147
171
128
145
170
127
143
168
126
142
167
124
140
163
122
138
161
121
137
160
119
135
158
117
133
156
115
133
155
113
131
153
112
130
149
111
128
146
110
127
145
108
125
143
106
123
141
88
103
117
128
148
173
130
150
175
130
151
175
133
151
180
139
153
174
130
140
153
120
123
130
106
102
105
107
98
94
110
95
88
104
91
79
108
96
84
108
96
84
101
89
78
105
92
82
98
86
77
94
85
78
101
100
110
131
139
156
133
141
158
126
134
154
118
120
130
103
88
80
120
99
88
123
106
96
128
130
138
156
170
202
153
172
201
153
173
206
153
173
206
153
173
206
154
174
207
154
174
207
153
174
205
153
174
205
153
173
206
153
173
206
152
172
205
151
172
203
151
172
203
150
171
202
150
171
202
149
170
201
149
168
200
148
167
199
147
166
198
146
165
197
145
164
195
144
163
193
142
161
191
143
161
190
142
159
187
140
158
186
137
157
184
136
156
183
135
153
180
135
152
178
134
151
177
132
150
174
131
149
173
130
147
171
128
144
169
127
143
168
125
141
164
124
140
163
122
138
161
121
137
160
119
135
158
116
134
156
115
133
155
113
131
151
112
129
147
111
128
146
109
126
144
108
125
143
89
103
119
130
150
176
132
151
177
134
152
176
126
133
153
108
101
103
99
85
79
101
87
79
91
79
70
91
79
66
97
85
73
93
79
71
99
85
77
97
83
74
98
84
72
103
88
74
103
91
81
102
89
77
98
82
72
111
94
82
115
96
85
102
89
79
106
93
85
109
93
82
110
93
82
112
95
83
108
95
86
108
109
113
145
155
178
156
176
207
155
176
208
156
176
208
156
176
209
156
176
209
155
176
208
155
176
208
155
175
208
155
175
208
154
174
207
153
174
206
153
174
206
153
173
205
152
172
204
151
172
204
149
171
204
149
170
202
150
168
199
148
167
199
147
167
199
146
165
198
147
163
191
135
145
165
135
143
163
140
150
173
138
154
179
140
158
185
136
156
182
135
155
181
134
153
180
133
152
177
131
150
175
130
149
175
130
147
173
129
145
169
128
144
167
126
142
166
124
140
163
122
138
161
121
137
160
119
136
158
117
134
157
115
133
152
114
131
149
113
130
148
111
128
146
109
126
144
90
104
120
116
129
144
105
110
119
94
88
90
94
83
78
88
76
69
87
74
65
82
69
60
80
67
58
85
73
62
87
74
64
90
77
68
88
75
66
86
75
66
90
76
66
95
79
66
99
82
72
102
85
75
105
88
77
115
95
82
118
94
83
105
90
79
103
89
78
105
90
80
107
90
80
105
88
78
109
92
79
103
87
78
97
89
87
146
158
180
155
179
213
157
178
211
158
178
211
158
178
211
158
178
211
158
178
211
157
177
210
157
177
210
156
176
209
156
176
209
156
176
209
156
175
207
155
174
206
155
174
205
155
172
203
152
171
204
151
171
204
150
170
201
153
170
200
148
155
180
129
126
133
107
93
82
99
87
77
90
80
75
85
76
71
99
93
95
116
117
123
129
136
148
129
140
158
129
138
157
129
138
157
132
144
164
133
149
171
131
148
173
130
146
171
128
144
169
126
142
166
124
140
163
122
138
161
121
137
160
119
135
158
118
134
155
116
133
151
114
131
149
113
130
148
111
128
146
91
106
121
85
78
77
89
78
72
95
82
70
88
76
69
85
73
66
85
72
63
80
67
58
77
64
56
72
59
52
76
63
56
77
65
56
89
76
67
80
68
59
83
69
59
103
88
75
95
78
68
99
82
72
101
86
75
101
87
76
101
83
74
99
84
73
98
84
73
103
88
78
106
89
79
106
89
79
104
86
77
106
90
80
97
86
76
104
111
124
162
180
211
160
180
213
160
180
213
160
180
213
160
180
213
159
179
212
159
179
212
159
179
212
158
178
211
158
178
211
157
177
210
157
176
209
157
175
207
157
177
208
153
173
199
142
156
178
130
138
152
108
109
116
102
96
98
124
108
101
120
99
88
103
84
75
99
83
73
88
75
64
84
73
64
91
76
69
103
88
79
90
79
72
83
72
70
85
75
68
89
79
71
87
78
71
93
95
101
135
147
169
131
147
172
129
145
170
127
143
167
125
141
164
124
140
163
122
138
161
121
137
160
118
135
155
116
133
151
115
132
150
113
130
148
112
129
147
92
107
121
83
75
66
82
71
63
84
72
63
84
71
62
82
69
60
78
68
59
75
65
56
74
65
56
68
59
50
64
55
46
54
47
41
71
60
52
91
78
68
93
79
68
97
83
72
92
79
70
87
74
65
90
78
69
79
69
60
71
61
52
76
62
53
95
81
72
99
85
75
100
86
75
97
83
72
96
83
72
102
90
78
97
86
76
72
74
81
164
183
212
160
181
216
161
182
217
160
182
218
160
182
218
160
182
218
161
182
215
162
181
214
164
182
213
159
174
202
153
163
187
137
144
165
130
129
144
115
107
112
103
94
93
94
84
82
91
80
76
88
79
71
106
88
79
129
106
93
117
98
84
115
96
82
97
84
70
90
76
65
82
70
61
82
68
59
89
76
69
84
69
62
93
76
66
99
80
67
100
81
69
93
77
64
84
70
63
113
113
126
132
150
171
130
147
170
129
145
168
127
143
166
125
141
164
123
139
162
121
137
160
119
136
158
117
135
157
114
133
154
114
131
149
112
129
147
93
108
123
67
59
50
78
66
58
87
74
65
84
71
62
79
66
57
78
68
59
75
65
56
76
67
58
71
62
53
70
61
52
66
59
54
53
48
43
72
64
58
85
74
65
84
73
64
78
69
61
70
60
53
73
63
55
68
58
49
72
62
53
80
67
58
96
82
73
100
86
76
97
83
72
95
81
70
93
80
68
98
86
74
94
83
72
85
76
70
132
124
128
136
132
145
144
147
165
149
157
179
150
158
179
146
154
175
139
146
164
130
132
143
120
114
118
110
98
95
111
96
92
107
94
89
104
92
86
104
92
86
96
85
79
88
77
71
89
77
70
86
78
67
111
94
82
133
110
97
108
89
75
105
85
71
92
78
64
89
74
64
86
71
60
66
55
47
58
49
41
81
70
61
84
70
59
87
73
66
84
70
62
77
64
57
67
56
51
78
70
65
129
135
152
131
147
175
130
145
170
128
144
167
126
142
165
123
139
162
122
138
161
121
137
160
119
135
158
117
133
155
115
132
151
114
131
149
94
109
124
73
64
55
80
70
61
81
69
60
82
69
60
81
68
59
78
69
61
77
67
59
81
71
63
80
70
60
78
67
58
78
66
57
74
64
57
55
47
41
62
55
49
59
51
45
54
50
45
47
42
39
67
60
55
85
73
63
84
71
61
90
75
65
102
87
78
95
80
70
92
79
69
95
81
71
98
85
74
96
83
72
83
72
61
93
83
74
106
94
89
106
94
91
107
95
92
106
95
91
105
94
91
106
96
92
106
95
90
105
95
90
106
94
89
112
95
88
111
95
89
110
94
85
103
91
82
97
89
82
90
80
71
87
77
68
81
71
62
81
72
60
109
93
80
123
103
91
103
86
73
109
92
78
92
78
64
94
77
66
95
77
65
80
67
59
57
49
45
47
40
37
68
57
52
60
51
45
56
47
41
66
57
48
69
60
53
79
64
56
93
88
90
133
145
164
131
147
171
129
145
169
128
144
167
125
141
164
124
140
163
122
138
160
121
136
157
120
135
156
117
133
152
116
132
150
96
109
124
75
65
56
84
74
65
80
68
59
80
67
58
82
69
60
82
72
63
82
72
64
88
76
67
91
78
69
86
73
64
84
73
65
82
72
64
69
60
52
60
53
48
59
52
46
48
44
40
46
41
38
56
49
45
94
81
69
102
86
74
105
88
79
103
86
76
97
81
70
92
77
65
94
79
67
103
89
77
100
86
74
89
75
63
93
79
68
100
89
80
108
92
86
114
97
90
110
94
87
107
93
86
108
95
87
106
92
85
104
90
83
107
93
85
105
91
82
108
94
85
104
89
82
101
89
80
95
86
77
92
82
73
86
76
67
81
71
64
86
74
65
105
91
80
98
83
70
112
96
83
90
76
63
97
82
69
102
83
71
104
85
72
95
78
69
77
64
56
48
43
40
56
48
42
71
61
53
71
60
51
81
68
58
82
67
57
92
75
66
94
79
71
103
104
114
133
147
170
129
145
170
128
144
169
125
141
164
125
141
164
123
139
159
121
136
155
120
135
154
117
132
153
117
132
149
97
110
123
75
66
57
77
67
58
82
70
61
83
70
61
83
70
61
90
76
65
93
79
68
94
80
70
96
83
74
92
79
70
94
80
69
88
74
64
89
77
67
69
59
52
69
59
51
67
58
50
72
62
54
78
67
61
92
79
67
108
92
80
107
90
81
103
86
76
102
85
73
102
84
70
107
89
75
107
93
77
107
94
78
105
90
75
103
85
72
102
88
77
110
94
84
112
95
85
114
97
87
114
97
88
112
95
85
111
94
85
111
95
85
110
94
84
107
93
84
103
89
80
101
86
79
101
89
81
92
83
74
90
80
71
85
75
66
83
73
66
87
75
66
97
83
72
113
98
85
98
82
69
102
88
74
101
85
72
102
83
71
109
90
75
104
87
74
91
74
61
66
58
52
57
51
46
64
55
47
90
74
61
99
78
66
94
75
63
92
77
64
99
82
69
82
74
71
129
139
158
130
146
171
129
145
170
126
142
165
125
141
164
123
139
160
122
137
156
120
135
154
118
133
153
117
132
149
97
110
123
67
58
49
75
66
57
72
62
54
79
69
60
80
70
61
88
75
66
91
78
69
93
79
69
96
82
71
97
83
73
100
83
73
100
84
74
104
86
75
83
70
62
64
56
47
81
67
57
90
76
65
93
78
68
105
88
78
104
87
77
102
88
76
107
93
80
103
88
75
105
87
72
107
89
74
110
94
80
113
97
84
110
93
79
105
89
74
97
84
72
100
87
76
114
97
87
114
96
87
113
96
86
111
94
84
110
93
83
110
93
83
109
92
82
107
90
80
104
87
78
103
89
78
97
85
76
90
80
72
90
77
69
87
74
66
81
72
62
85
73
64
86
72
62
112
94
81
99
83
71
96
81
69
104
88
75
98
81
68
108
89
75
105
87
73
93
77
65
78
66
57
64
54
47
76
62
53
95
77
66
99
78
65
104
85
72
96
81
67
77
66
57
72
61
57
99
100
107
130
147
168
131
146
168
127
143
166
126
142
165
124
140
160
123
138
157
121
136
155
119
135
152
118
134
150
97
111
124
66
57
48
67
58
49
75
66
57
75
65
56
77
67
58
84
71
62
86
73
64
90
77
67
92
78
67
96
82
71
99
82
72
100
83
73
104
87
76
81
70
61
78
67
59
103
89
78
101
87
76
100
88
77
92
81
72
87
76
67
88
77
66
90
79
68
98
86
74
101
85
73
100
85
73
100
86
73
107
93
80
106
92
79
100
88
75
89
79
69
89
77
66
111
94
84
112
94
84
109
92
82
106
89
79
105
88
78
106
89
79
104
87
77
102
85
75
100
83
73
96
81
70
92
81
71
90
80
72
86
73
65
86
73
65
81
72
62
85
73
63
90
77
68
79
68
59
97
82
69
104
87
74
106
91
78
106
90
77
99
84
71
91
76
63
88
73
62
79
67
57
65
56
48
62
52
44
82
70
60
83
67
56
93
80
67
80
70
57
71
63
55
55
48
42
68
63
64
131
144
162
131
146
169
129
145
168
126
142
165
125
141
161
123
138
157
121
136
155
120
136
152
118
134
150
97
111
125
66
57
50
67
58
50
72
62
54
72
62
53
79
69
60
77
65
56
75
63
54
86
73
64
90
76
66
93
79
69
92
77
67
96
81
71
95
81
70
76
65
56
77
65
58
96
83
73
97
84
73
92
81
71
75
68
59
64
57
48
75
66
58
85
76
68
85
75
67
90
77
68
97
84
73
99
87
74
102
90
77
102
90
78
94
82
73
81
72
65
93
80
70
108
91
81
107
90
80
105
89
78
105
88
77
102
86
76
102
86
76
101
86
75
100
84
74
95
79
70
92
78
68
87
76
66
86
75
67
84
72
64
82
70
61
82
72
62
82
71
62
82
71
63
66
59
52
97
81
70
104
88
75
93
79
67
102
87
75
88
74
62
84
71
60
78
65
55
75
64
55
54
47
41
43
38
32
53
46
38
57
49
43
57
50
46
45
41
36
48
43
35
55
49
43
66
59
54
116
128
142
131
147
170
130
145
167
128
143
165
126
141
161
124
139
157
122
138
155
120
136
152
119
135
151
98
112
126
67
58
53
63
54
49
70
61
54
73
64
55
73
64
55
67
57
48
75
65
56
81
69
60
82
69
60
82
69
60
88
75
66
85
72
63
84
71
62
76
64
56
61
53
46
67
59
51
80
72
64
71
64
57
61
56
51
68
62
58
64
55
50
76
67
62
80
70
64
90
77
69
93
80
69
98
85
73
97
83
72
100
86
74
92
78
69
78
69
61
102
86
77
107
90
80
105
88
78
105
89
76
102
86
73
99
84
73
98
84
73
96
82
72
95
81
72
92
78
69
89
77
69
83
73
64
82
72
63
79
69
60
83
73
64
82
72
63
80
70
61
75
66
58
62
55
49
87
73
62
95
80
68
97
83
72
86
72
61
94
79
64
88
75
63
74
63
53
64
56
50
41
38
35
50
44
40
43
38
34
34
36
31
34
36
31
39
39
33
49
43
37
74
64
56
71
62
53
96
102
109
132
147
167
130
145
165
129
144
163
127
143
160
125
141
157
123
139
155
120
136
152
120
136
152
99
113
126
61
53
48
64
55
51
66
57
50
68
59
50
65
57
48
76
66
57
78
68
59
81
70
61
80
67
58
82
69
60
83
70
61
84
71
62
84
71
62
76
65
56
53
45
39
42
39
34
46
43
39
51
49
45
50
49
44
51
50
45
66
58
53
67
58
53
78
67
62
90
77
69
93
81
70
103
90
75
106
93
78
108
94
79
101
88
75
81
72
62
106
91
81
108
91
81
109
92
81
106
90
77
104
88
76
97
83
71
94
80
69
91
77
66
90
76
67
87
73
64
86
74
66
81
71
62
78
68
59
76
66
57
81
71
62
82
72
63
78
68
59
75
66
58
43
38
34
80
69
61
88
74
64
94
80
69
88
73
62
97
81
67
86
73
61
70
61
52
54
48
44
36
37
36
52
46
42
48
44
40
30
35
32
32
34
30
51
47
39
64
54
46
79
66
56
71
59
48
73
68
66
134
145
162
131
146
165
129
144
163
127
142
160
125
141
157
123
139
155
122
138
154
120
136
152
99
113
126
57
55
49
56
51
43
63
57
49
61
53
45
73
64
54
78
68
59
74
64
55
81
70
60
85
72
61
90
78
66
86
73
62
84
72
60
81
70
58
73
64
56
51
45
42
41
39
36
42
42
38
39
40
36
47
47
42
65
57
52
86
77
68
81
71
61
81
71
61
90
77
69
95
82
72
99
88
77
99
88
77
97
86
74
102
90
76
84
72
62
108
95
84
106
92
81
105
91
80
104
89
78
101
87
75
92
79
70
89
76
67
84
72
63
79
69
60
81
70
61
82
72
66
78
69
64
78
69
63
76
66
57
79
70
61
82
70
61
81
68
59
77
66
58
36
37
35
32
35
31
46
42
36
71
63
54
90
78
64
91
74
61
87
73
61
76
68
62
50
45
42
36
36
34
40
38
36
37
37
34
28
35
30
38
39
31
73
63
52
89
74
62
85
70
57
81
68
57
78
69
58
116
121
132
135
145
169
131
145
163
128
144
160
126
142
158
124
140
156
124
137
153
122
136
152
101
113
127
40
41
37
55
53
47
60
56
49
65
57
49
78
69
59
69
59
50
77
67
58
82
71
61
94
82
70
86
74
62
85
73
61
84
72
60
80
68
57
73
62
53
64
56
49
50
45
40
58
54
49
55
50
45
56
51
45
78
71
61
82
73
63
89
79
69
84
73
64
86
73
64
93
80
71
101
86
73
109
94
80
111
97
83
102
90
77
76
63
54
107
93
83
102
88
77
101
87
76
96
83
72
93
79
68
92
79
70
85
72
64
81
69
61
76
66
57
75
65
56
77
68
62
77
68
63
74
65
59
78
68
59
82
72
63
80
68
59
81
68
59
80
68
59
46
44
39
27
35
33
24
36
29
33
36
28
69
59
54
87
75
66
86
72
61
67
58
53
50
44
41
34
35
32
33
34
32
31
36
32
29
36
31
47
45
38
77
63
54
91
75
62
90
74
61
88
74
61
89
74
63
89
85
85
136
146
166
131
145
165
127
143
161
126
142
158
124
140
156
125
138
154
122
135
151
101
113
126
39
43
39
40
41
37
62
59
53
68
60
51
76
67
56
66
57
49
74
64
55
89
77
68
85
73
62
84
72
61
86
73
62
81
69
58
79
66
56
80
66
56
75
63
52
57
49
40
58
53
46
61
54
47
66
58
51
76
70
60
87
78
67
95
85
74
94
83
72
92
79
69
95
82
72
95
84
74
100
90
80
102
92
80
96
85
71
93
82
72
98
85
75
101
87
77
97
83
73
95
81
70
92
77
68
87
74
66
83
71
63
80
68
60
74
64
57
70
60
52
70
62
56
75
67
62
68
60
54
80
70
61
78
68
59
78
66
57
79
66
58
81
69
60
54
49
44
29
34
35
24
35
31
23
35
30
30
35
33
49
43
37
85
72
63
63
55
47
41
37
33
36
35
33
35
37
33
31
36
32
30
35
30
53
49
41
79
65
54
90
75
62
90
75
61
88
74
58
89
72
61
80
67
60
126
134
151
127
143
164
126
141
161
124
140
156
123
139
155
123
136
152
121
134
151
100
112
126
48
47
42
28
35
31
33
39
33
65
61
53
79
68
60
63
57
50
73
65
55
83
72
62
78
65
56
89
76
67
82
69
60
80
67
58
83
70
60
80
66
55
82
68
57
76
65
55
44
42
37
57
53
47
52
48
42
78
70
61
98
85
74
99
86
74
98
85
74
100
86
75
100
86
75
101
87
78
103
90
78
97
85
70
96
84
70
97
84
74
88
75
66
90
77
68
92
79
69
88
75
66
86
72
65
83
72
64
79
69
60
76
67
59
74
65
60
72
63
58
66
60
54
64
59
54
71
64
58
83
73
64
77
67
58
80
68
60
80
67
59
81
69
62
43
41
37
33
36
33
27
35
33
21
36
31
27
35
33
36
34
34
59
50
44
57
54
47
41
41
36
39
38
37
36
37
32
36
37
32
33
36
30
51
50
41
74
64
52
85
72
59
88
75
59
86
72
57
88
74
63
84
70
62
111
113
129
125
144
161
125
140
159
123
139
155
122
138
154
122
135
152
121
134
151
100
111
126
42
42
38
30
37
33
24
35
31
28
35
31
46
44
39
68
62
55
75
67
58
81
70
60
80
67
58
86
73
64
79
66
57
72
59
50
82
69
59
77
63
52
82
68
57
83
69
56
48
46
41
38
39
37
40
38
34
91
79
68
111
95
84
107
91
81
102
87
76
98
84
73
101
87
76
98
83
72
107
92
77
115
100
83
113
98
82
102
87
74
87
74
65
88
75
66
84
72
62
80
71
63
78
68
64
78
68
61
77
67
58
74
64
56
72
63
58
73
64
59
63
57
51
59
54
48
68
61
55
80
70
61
79
69
60
79
67
59
78
65
57
78
65
58
59
52
46
44
43
38
31
35
33
25
36
32
30
35
34
38
40
37
70
70
75
91
94
103
49
50
50
45
47
43
42
43
38
38
39
34
41
40
38
45
42
37
63
57
47
80
65
57
91
77
65
80
66
53
83
69
57
82
68
60
92
92
102
128
143
161
126
140
160
122
138
154
121
137
153
121
134
151
120
133
150
99
110
125
33
38
33
29
36
33
36
39
34
29
35
30
27
35
32
34
37
33
60
53
45
83
71
62
83
70
60
86
75
61
84
72
62
80
67
58
79
67
57
83
70
58
87
71
60
84
68
56
68
60
50
30
35
33
45
40
37
105
90
80
112
96
84
110
93
81
99
83
71
100
86
75
94
80
69
98
84
71
98
84
70
100
86
73
102
88
75
101
86
72
86
75
65
85
74
65
77
67
59
73
63
58
72
62
58
74
64
59
73
64
58
71
63
58
66
60
56
67
62
57
59
52
49
55
50
47
48
45
40
73
64
55
79
70
61
83
71
64
83
70
62
86
73
63
86
68
62
70
60
56
35
37
37
32
36
34
36
38
37
46
48
44
98
105
114
150
157
177
95
98
105
123
130
145
59
63
65
45
47
40
57
55
53
89
94
99
93
100
106
73
63
55
108
88
74
77
64
52
83
70
58
79
66
57
77
73
74
132
142
161
128
140
157
125
137
153
121
136
154
120
134
152
119
131
148
99
109
122
37
38
35
29
33
33
56
54
49
48
47
42
34
36
33
30
38
34
38
41
35
62
58
51
82
73
64
83
72
60
80
68
58
82
69
60
75
63
53
86
73
61
86
70
60
90
74
62
78
69
59
25
33
30
57
53
48
100
87
77
107
92
79
108
92
79
101
86
74
94
80
69
94
80
69
100
86
74
99
85
72
101
86
72
106
91
77
95
83
72
84
74
65
86
76
67
70
61
53
68
60
55
68
60
55
69
61
55
70
61
56
67
59
54
64
59
55
63
58
54
64
57
54
49
45
41
41
39
33
68
59
50
76
67
58
83
72
65
85
73
64
86
73
62
89
74
63
70
59
52
40
38
36
40
40
37
52
53
53
126
132
147
149
156
180
151
160
181
153
161
176
159
160
189
137
139
152
67
68
64
73
77
77
124
135
144
132
141
149
95
92
86
123
102
84
92
77
58
74
63
50
75
61
53
73
61
58
124
130
140
122
131
141
116
126
133
114
127
136
105
118
123
102
113
115
83
89
91
43
43
39
35
36
35
56
52
45
65
59
52
60
55
49
59
59
54
40
39
36
35
34
31
66
60
52
80
68
58
84
70
62
82
69
60
79
67
56
89
76
64
90
74
64
95
78
66
75
66
56
25
34
30
45
44
39
94
83
73
105
90
77
109
93
81
99
85
73
98
84
74
94
80
70
94
81
68
97
83
71
108
93
79
104
89
74
92
82
72
75
65
57
97
86
77
75
68
61
61
55
49
58
53
47
63
55
51
61
52
49
61
53
49
60
54
50
63
57
53
58
52
49
51
47
44
39
36
31
65
56
47
77
68
58
85
73
65
84
71
62
86
74
62
87
73
60
84
71
62
67
59
54
53
49
42
102
105
98
131
138
132
136
140
140
119
129
118
110
125
107
123
126
115
120
126
115
110
113
96
105
109
92
108
116
101
108
113
95
100
103
86
111
90
76
123
104
84
74
63
49
71
60
51
68
60
50
95
93
82
104
102
88
102
100
83
96
96
81
90
93
77
89
89
72
74
73
58
39
40
35
38
39
34
50
48
40
71
64
54
75
66
57
72
68
59
69
64
60
52
50
48
37
38
34
58
51
43
86
74
65
86
73
61
83
70
56
86
72
61
88
74
63
88
71
60
73
65
55
24
35
32
30
36
30
90
79
73
106
92
81
109
95
84
98
84
74
89
76
67
86
73
64
93
79
67
98
84
71
99
86
73
98
85
73
90
81
70
70
61
52
94
85
75
73
69
63
54
53
48
55
52
46
56
49
46
53
47
44
54
48
46
53
48
45
55
49
46
51
48
43
46
43
38
42
39
34
67
59
49
86
73
62
80
68
60
86
73
64
84
71
62
88
74
63
87
73
62
85
71
64
79
69
60
92
95
79
108
114
94
107
113
93
108
115
93
108
113
91
110
112
91
107
109
87
111
109
89
109
105
85
118
115
94
111
109
87
107
105
86
97
85
70
135
111
83
123
103
76
66
56
43
70
62
51
99
90
74
109
100
82
107
98
83
107
98
86
107
98
86
106
97
84
87
79
67
41
42
37
36
37
32
50
48
40
70
63
53
77
67
58
75
68
57
72
64
57
58
54
50
33
38
34
30
35
31
35
37
30
62
57
49
71
59
50
87
73
62
82
68
57
86
71
63
65
59
52
20
35
34
23
35
31
55
50
44
98
85
75
99
85
74
99
86
75
87
74
65
85
72
63
93
79
67
98
84
71
96
82
69
97
84
72
78
69
59
63
55
47
79
73
67
172
161
144
122
112
94
53
50
45
45
42
37
44
42
38
44
43
39
47
46
42
45
43
39
45
42
37
43
40
35
41
40
34
54
48
38
90
74
64
85
71
62
85
72
63
86
73
63
90
76
65
85
71
60
88
74
66
82
72
62
144
128
94
190
168
117
186
164
113
187
165
113
189
165
114
185
158
107
179
156
104
189
162
113
183
155
106
188
161
112
181
154
105
176
152
103
164
144
103
102
84
56
188
161
125
124
106
82
74
65
48
151
132
95
172
146
97
169
143
95
168
142
97
164
140
95
162
138
93
137
115
77
33
35
33
29
37
33
40
42
37
70
63
53
75
68
58
72
63
53
72
63
54
71
63
58
61
59
53
35
39
35
29
38
33
33
36
31
39
37
31
58
48
41
61
49
42
58
50
46
31
35
31
17
35
30
18
36
29
40
38
33
111
96
83
123
104
88
102
87
77
75
67
57
82
72
62
92
78
66
99
85
72
101
87
75
94
78
67
93
81
69
60
55
46
57
55
48
158
139
116
178
157
130
83
75
63
47
45
40
45
43
38
44
42
37
44
42
36
44
41
36
43
42
35
45
42
36
48
44
34
51
44
41
98
84
67
98
81
72
88
72
62
91
76
66
92
78
67
88
74
63
90
76
64
88
75
65
145
124
87
226
188
119
227
188
119
221
183
117
221
181
114
218
179
111
212
177
111
209
173
109
204
168
106
205
168
106
202
166
104
201
164
104
192
164
109
94
81
53
118
104
80
166
143
112
132
115
90
159
135
92
185
151
96
181
147
95
180
146
99
177
146
96
172
141
91
145
119
75
24
36
32
21
35
30
34
38
34
67
62
51
69
62
52
73
64
55
70
61
53
76
66
60
80
75
66
54
55
50
32
37
33
40
40
31
49
44
29
49
43
32
41
39
30
37
35
30
26
35
30
15
35
30
16
35
30
32
35
32
89
80
70
124
105
90
120
101
91
75
62
53
81
72
62
96
82
70
92
79
66
91
78
66
98
83
72
88
77
69
55
52
46
48
45
38
84
69
52
127
111
92
108
97
86
70
65
60
48
45
40
46
43
38
47
44
36
47
44
36
48
46
34
54
49
37
61
53
42
62
54
38
87
74
60
100
84
71
92
76
63
95
80
67
88
74
63
83
69
58
91
77
65
91
79
66
123
102
73
221
184
120
225
188
118
223
188
120
217
181
113
214
177
110
207
169
107
204
165
108
198
159
104
197
158
104
199
160
106
192
157
99
188
156
101
117
101
66
58
52
35
113
97
76
189
171
138
166
140
101
170
140
94
168
141
91
166
138
89
167
139
92
168
140
94
141
116
77
16
36
29
17
35
29
29
35
31
63
57
48
71
63
54
68
61
52
70
62
54
76
67
60
78
71
61
70
68
60
40
40
37
45
43
32
147
132
94
129
113
80
47
43
36
38
37
31
25
35
30
15
35
31
15
35
32
24
35
32
49
47
42
118
102
89
129
107
95
114
97
87
77
68
57
88
76
64
92
79
67
93
81
69
84
74
62
71
63
55
49
47
42
47
44
36
52
47
38
65
55
45
89
77
68
104
97
90
76
71
65
49
47
40
50
47
36
52
50
37
57
54
44
72
62
42
152
131
94
209
183
127
108
92
63
99
85
68
99
83
68
94
78
63
84
70
59
86
72
61
89
74
65
87
75
61
97
76
60
204
171
120
206
170
111
193
160
102
197
163
108
196
163
108
194
165
104
189
159
102
187
156
103
181
150
99
183
153
103
171
146
97
163
138
91
126
113
75
50
47
35
59
51
41
110
102
80
164
146
114
143
123
91
140
116
81
149
126
83
157
131
89
153
128
87
127
105
70
16
35
29
20
35
30
27
36
31
55
49
41
66
58
50
66
61
55
69
64
59
70
66
57
72
68
57
80
76
65
67
62
53
48
46
33
146
131
89
178
154
110
55
49
37
42
40
31
29
34
30
15
35
31
14
37
31
19
36
32
32
37
33
61
55
45
112
95
81
134
116
101
115
102
88
97
88
77
86
77
67
79
70
60
70
65
54
72
67
56
53
49
40
50
46
38
50
45
37
54
45
38
62
53
43
103
93
82
125
117
108
82
78
73
61
57
40
72
62
42
137
120
84
196
170
120
218
184
120
220
187
121
150
131
88
95
82
67
97
79
65
96
79
65
89
75
63
90
76
66
89
74
66
86
72
62
86
71
56
192
167
111
208
174
115
200
170
109
193
163
105
192
161
106
196
167
107
186
157
101
185
154
102
180
151
102
175
149
102
177
150
102
170
147
97
131
116
75
48
45
34
46
42
30
64
56
39
129
113
87
117
101
75
105
90
66
135
113
80
158
131
88
148
124
82
120
101
65
20
35
30
24
35
31
28
37
32
44
42
32
64
58
50
65
60
54
69
65
59
71
67
59
71
67
56
75
71
60
72
68
56
53
51
36
147
133
90
209
180
123
68
60
39
47
43
32
33
36
29
18
36
31
14
37
31
18
35
32
28
36
33
37
38
34
60
53
48
78
67
59
97
88
75
102
93
82
103
94
84
106
96
86
109
100
90
101
91
81
88
80
71
57
50
40
59
51
41
60
51
41
62
55
40
83
74
57
99
90
75
107
95
73
178
155
110
222
192
126
235
199
127
240
202
130
239
201
128
231
196
124
196
169
116
78
64
46
88
74
59
92
78
63
90
76
63
91
77
67
89
74
66
85
71
61
83
68
53
196
171
116
211
177
119
202
173
109
204
174
113
194
163
106
200
171
112
190
161
105
185
154
102
179
150
101
171
145
98
169
142
95
173
150
101
141
127
84
49
46
33
43
39
31
59
51
35
156
136
99
146
128
86
94
85
57
80
67
50
121
104
76
145
126
89
124
107
71
24
35
30
26
36
31
27
35
31
38
40
34
59
55
49
68
61
52
68
60
51
69
61
53
73
65
56
71
63
54
66
62
52
55
54
39
151
135
90
208
181
122
139
125
87
52
47
35
37
37
31
20
36
32
15
36
31
19
36
33
26
36
33
33
37
34
49
48
43
55
51
44
63
56
47
60
55
47
59
54
46
62
57
49
67
62
50
67
60
54
67
59
41
92
82
54
107
96
67
131
116
81
176
156
110
199
173
117
217
190
132
213
185
122
226
196
123
225
192
122
227
193
124
228
193
122
229
193
124
225
190
123
213
182
120
142
126
87
75
65
51
94
78
64
94
79
66
87
74
64
88
73
64
88
74
63
82
69
54
186
159
110
192
160
103
192
164
107
191
163
107
185
157
102
181
158
102
180
156
101
170
145
93
173
149
99
170
148
98
162
141
94
159
139
94
138
124
85
57
51
40
42
41
31
53
49
34
146
132
92
152
133
86
142
129
87
122
115
78
90
79
58
87
74
53
89
77
55
30
36
29
31
37
30
31
36
30
38
38
33
57
52
44
69
60
51
74
65
56
72
63
54
72
63
54
74
65
56
65
60
51
60
55
41
174
156
105
203
173
114
184
163
113
56
51
34
39
39
31
22
36
32
19
36
33
22
36
33
26
37
33
32
36
32
47
44
39
51
43
38
75
64
57
68
64
57
61
58
51
59
56
50
55
55
43
90
82
61
187
168
118
219
197
132
220
196
126
216
190
118
223
193
125
220
189
122
221
191
124
214
184
118
210
181
119
207
178
116
201
174
112
204
178
115
204
178
115
202
176
115
191
168
110
152
139
99
70
60
47
103
86
72
96
81
68
88
74
65
90
75
66
89
75
64
81
70
53
187
168
118
180
156
103
171
153
102
161
144
93
163
145
96
165
145
98
162
142
95
155
138
92
154
139
93
156
141
95
150
138
87
153
140
93
132
125
83
59
53
42
49
47
37
54
50
33
134
127
90
134
121
80
132
118
80
126
115
79
121
114
79
113
105
75
84
78
53
43
42
31
42
41
32
41
41
33
42
40
31
60
53
41
72
63
54
74
66
57
73
64
55
71
62
54
75
66
57
60
58
47
69
60
45
181
164
111
183
161
109
190
171
119
60
55
33
40
40
31
24
36
31
21
36
32
24
36
33
26
37
33
32
36
32
41
41
37
39
39
34
50
49
42
63
61
55
63
61
54
63
60
53
61
61
51
132
121
84
191
173
112
196
176
114
198
175
117
199
178
117
194
174
117
192
172
114
192
172
114
184
165
107
177
161
106
178
162
107
178
162
107
180
163
108
172
155
100
171
155
102
166
152
101
139
130
91
63
54
41
94
78
64
95
80
67
87
74
63
88
75
64
87
73
62
79
70
51
156
147
99
154
141
94
146
139
94
142
135
91
136
130
86
138
131
89
129
122
80
133
127
84
132
125
82
131
125
82
126
122
80
126
121
82
112
110
72
57
53
42
56
50
42
56
52
36
118
114
80
110
108
69
107
106
68
109
107
73
110
106
70
109
105
72
87
83
55
126
119
86
108
100
73
100
94
65
118
114
82
107
103
76
69
60
51
73
64
55
71
62
53
68
59
51
67
58
49
57
53
43
105
99
75
169
155
103
172
158
108
163
149
103
68
62
38
41
40
34
28
35
31
20
37
31
22
37
32
27
37
31
33
37
33
40
40
37
40
41
35
39
43
39
50
53
49
68
69
63
61
59
49
59
57
48
136
130
93
169
160
105
175
163
109
173
159
105
181
167
112
169
155
103
163
151
102
164
153
104
157
147
98
157
149
99
159
151
102
158
149
100
160
150
101
158
149
100
157
150
100
150
143
94
137
132
91
58
52
36
83
69
57
93
77
63
88
75
63
85
74
61
78
68
59
88
84
62
130
130
86
137
134
91
125
122
81
133
126
87
129
126
86
129
126
86
133
130
89
127
124
82
130
127
87
118
115
78
116
119
79
122
122
83
114
114
76
55
53
43
53
51
43
53
51
37
123
119
86
124
124
87
112
113
77
111
111
75
109
105
70
108
104
70
87
84
54
133
127
84
132
126
83
143
140
95
134
131
86
123
119
86
71
62
53
74
65
56
75
66
57
73
64
55
65
56
47
57
52
40
99
98
70
146
142
94
151
148
98
147
143
96
92
89
65
41
41
34
29
36
32
19
36
30
22
37
32
27
37
32
34
39
30
62
63
43
113
114
88
46
47
39
38
41
37
55
56
49
63
59
51
63
61
50
119
120
81
150
149
99
156
153
104
162
157
106
163
158
104
157
151
100
149
148
99
148
148
99
150
149
100
152
148
98
159
155
104
162
156
106
160
154
104
156
151
101
152
149
98
152
149
98
153
152
104
59
59
37
75
64
52
96
81
66
87
74
62
81
70
56
76
66
57
91
87
65
134
134
90
136
133
90
143
137
96
124
125
83
123
125
83
131
128
87
133
130
89
127
124
82
125
122
82
122
118
81
116
119
79
119
119
80
114
114
76
52
49
39
53
50
42
56
54
39
111
106
73
114
112
76
107
103
69
111
108
74
105
101
67
115
111
76
93
90
60
119
120
80
125
126
86
134
135
95
135
135
92
125
124
89
71
62
50
75
65
56
75
65
57
70
61
52
64
58
48
58
53
41
96
98
68
125
129
83
131
135
86
135
138
91
94
97
68
43
41
35
29
36
32
21
36
31
24
37
32
27
38
32
38
43
37
99
100
68
125
127
88
47
50
41
35
42
35
39
45
42
61
59
54
57
56
41
130
131
91
146
145
95
147
147
98
150
149
100
154
149
100
149
145
97
146
142
94
146
144
96
142
141
95
150
142
95
160
151
105
151
145
97
145
138
90
146
140
91
159
152
103
151
144
95
150
146
97
74
72
49
67
58
48
92
77
65
89
76
64
83
71
60
73
64
55
90
87
63
128
124
83
127
122
81
134
130
88
124
124
81
124
124
81
122
120
81
125
121
82
122
124
83
119
120
80
117
117
78
117
115
77
117
114
76
114
113
78
52
50
38
50
46
39
64
62
45
111
105
71
107
102
70
106
101
69
105
100
68
113
108
76
112
107
75
87
84
55
117
121
81
116
121
80
122
126
85
119
122
77
124
126
89
72
63
50
73
63
54
72
62
54
70
61
52
62
57
47
55
51
38
97
95
66
122
121
80
129
126
85
131
129
88
108
106
76
43
43
33
30
36
31
21
35
31
24
36
32
29
37
33
42
45
38
117
116
80
139
138
97
48
49
39
38
42
36
30
38
37
43
45
39
52
53
40
135
133
96
153
144
97
159
144
99
161
144
100
148
136
91
147
142
94
152
141
95
154
142
99
147
137
95
150
139
94
149
138
93
151
138
93
159
145
100
164
149
104
164
149
102
151
144
95
154
147
98
94
91
68
58
51
41
87
73
62
86
72
61
76
67
56
74
66
57
97
93
68
132
129
88
130
126
86
134
130
88
136
132
90
137
133
91
124
120
82
128
121
84
119
118
79
120
118
80
122
117
79
110
105
69
113
107
71
107
104
70
50
47
34
45
45
37
68
64
47
115
105
72
109
100
70
106
98
67
105
97
66
110
102
71
107
99
68
91
85
59
126
124
85
137
133
95
130
125
87
130
125
84
136
130
95
76
66
53
75
65
56
69
59
51
68
59
50
59
53
43
51
48
34
121
116
86
148
139
98
145
137
93
141
132
89
129
121
88
45
47
33
33
37
32
21
35
30
23
36
32
30
36
33
46
46
37
137
134
94
135
132
90
60
58
47
48
48
41
31
39
36
33
40
34
45
48
37
122
117
85
149
141
95
152
143
97
150
145
97
154
147
100
159
145
100
159
145
101
154
145
101
145
137
93
151
138
94
149
137
91
159
147
101
150
140
94
154
143
96
162
150
102
163
150
104
158
145
101
107
102
79
47
45
33
84
72
60
85
71
60
74
65
54
70
63
54
115
104
83
147
135
97
136
123
85
135
124
84
137
128
86
136
128
85
124
116
78
132
120
85
121
114
77
118
110
74
129
118
84
121
113
78
127
119
83
114
107
74
50
45
33
45
46
36
82
75
58
111
98
67
114
102
72
107
95
66
109
99
69
110
99
69
105
95
65
87
78
53
146
137
95
131
121
83
138
130
91
136
128
89
137
129
94
73
65
51
67
58
49
65
56
48
63
54
46
58
49
40
51
48
32
130
129
90
149
141
95
149
141
95
160
151
109
138
139
97
47
47
31
34
37
32
22
36
31
20
36
31
28
37
31
49
46
37
141
133
93
134
128
90
68
63
56
59
57
49
37
39
34
32
37
34
43
46
35
101
94
68
147
137
91
149
132
89
146
133
90
145
132
90
150
133
93
137
124
86
157
146
102
155
142
94
153
135
93
147
129
88
145
129
90
138
122
87
137
120
87
145
127
93
138
120
85
138
124
90
94
88
65
45
44
32
80
71
59
84
71
60
81
69
58
76
70
59
100
90
72
119
109
78
122
109
76
132
117
87
127
114
78
127
114
79
125
116
81
116
102
72
108
95
67
105
94
67
105
94
70
107
100
74
104
97
72
102
97
74
70
68
52
83
84
63
82
77
63
103
93
71
101
93
69
105
95
73
102
91
64
95
83
60
90
79
55
77
67
47
154
139
99
135
122
86
135
124
86
137
126
88
132
120
87
69
61
47
71
62
53
64
55
47
62
53
44
57
48
39
54
49
34
131
123
86
146
138
92
149
139
94
138
127
86
142
132
90
81
74
56
37
37
32
25
36
32
25
37
32
34
40
35
50
44
36
147
134
96
130
117
81
62
58
51
56
52
45
52
51
47
34
37
33
41
44
34
81
73
55
141
123
84
120
106
73
133
120
78
142
124
88
130
114
84
113
101
72
125
110
79
130
115
83
122
109
79
115
102
74
116
101
74
97
86
60
92
86
61
101
91
71
97
87
64
104
96
70
81
75
56
56
52
40
75
66
54
87
74
63
81
70
58
76
69
53
66
66
54
87
83
65
88
81
61
94
89
67
100
94
78
104
98
81
97
92
73
92
84
63
91
83
61
90
83
63
93
85
68
95
91
74
82
79
62
90
85
69
92
86
61
102
94
65
93
88
79
84
83
80
93
92
80
102
101
88
93
89
79
84
79
72
84
80
72
73
71
64
138
126
86
140
120
87
130
112
79
135
119
83
136
120
89
73
64
53
67
58
49
62
54
45
60
55
45
64
59
49
65
61
43
124
110
76
133
118
81
138
120
83
131
113
78
117
105
70
83
77
57
37
37
35
28
35
31
28
36
32
41
42
39
60
54
43
110
98
71
110
101
76
53
50
43
50
50
44
48
49
44
35
37
31
68
63
50
81
73
56
111
102
84
107
101
80
126
116
84
142
126
92
119
106
77
118
104
76
131
118
89
103
96
79
113
102
80
123
110
82
141
125
95
132
118
88
127
118
89
118
110
85
118
108
85
117
112
91
122
114
91
105
93
75
101
90
70
116
102
77
109
94
70
94
84
64
104
101
86
114
103
85
130
116
87
124
113
83
117
109
84
120
112
89
123
120
103
111
108
90
115
107
87
112
105
81
111
105
83
124
114
90
113
103
79
116
105
81
116
103
72
121
107
77
99
93
74
106
103
92
97
93
74
105
102
89
93
94
83
95
94
84
91
94
84
81
84
80
119
108
73
115
96
67
108
93
66
115
102
72
112
98
74
68
59
50
65
56
47
64
57
47
61
57
47
56
52
42
83
74
55
126
109
75
124
108
78
123
108
77
137
122
92
123
112
81
100
95
73
38
39
33
36
42
36
39
40
35
52
50
41
70
65
50
131
125
104
119
113
97
50
51
43
46
48
44
40
42
37
45
43
32
119
104
78
126
109
78
137
124
99
124
109
80
136
120
85
134
117
80
128
114
82
125
106
76
137
117
85
125
113
94
128
114
89
137
122
91
141
123
93
138
122
92
129
117
88
124
111
85
146
132
106
120
114
91
126
119
87
111
98
68
119
106
77
117
105
71
112
96
65
103
89
62
115
103
80
119
109
88
126
116
91
127
114
81
128
114
80
132
118
89
128
120
95
126
119
100
118
110
91
109
102
81
114
104
78
122
111
83
116
105
77
108
96
71
112
101
70
100
89
59
96
87
62
125
119
96
106
100
79
104
99
80
96
94
77
99
97
84
107
105
90
85
83
73
105
97
70
114
99
77
115
104
85
111
103
82
110
102
87
67
59
50
65
56
48
61
55
46
62
58
48
61
58
46
72
66
53
117
105
83
113
101
84
108
95
78
113
99
82
120
109
92
100
96
81
40
41
35
34
39
29
54
51
43
78
73
58
68
66
51
118
117
101
106
105
95
46
49
41
44
46
41
41
43
37
43
44
38
87
81
68
100
93
79
122
121
109
123
120
108
116
108
91
124
117
98
130
125
110
124
119
105
123
118
102
120
120
116
120
115
106
124
118
100
126
117
100
116
108
89
125
120
100
121
116
96
117
111
92
113
107
94
114
105
79
128
114
85
109
94
68
108
97
72
92
84
58
90
80
54
115
106
78
116
109
86
108
104
86
114
109
94
124
116
96
110
104
77
111
108
85
117
115
102
102
99
83
110
104
88
123
112
84
116
104
78
120
108
82
116
106
82
109
101
72
108
99
69
109
98
70
106
99
70
106
100
79
97
93
70
98
96
79
97
95
82
109
104
86
91
86
73
108
108
98
106
106
96
113
112
106
100
100
98
107
110
107
64
60
53
59
54
47
61
57
50
61
58
50
53
50
42
68
71
67
101
110
111
101
107
110
100
107
107
97
105
109
101
105
110
103
104
108
52
51
42
70
67
53
71
68
51
86
82
60
81
81
67
115
120
111
105
109
100
52
53
45
41
44
35
61
61
49
58
60
55
69
77
81
90
98
104
92
101
108
104
111
116
111
110
105
101
102
93
105
106
98
110
113
106
106
107
104
104
103
93
113
112
101
126
123
102
120
116
101
113
106
91
124
118
94
107
107
90
112
113
103
109
105
93
115
107
80
129
116
84
108
98
73
93
82
62
97
89
66
96
89
63
109
102
75
103
94
72
109
107
89
109
108
93
110
102
81
111
109
88
107
107
97
110
111
111
106
108
101
109
113
106
108
105
89
108
98
78
107
100
82
105
101
83
89
83
61
92
84
56
98
90
64
92
85
65
95
90
74
101
97
81
98
94
77
99
94
71
97
91
73
83
79
59
107
111
107
100
104
100
107
111
112
95
107
115
103
109
109
63
59
49
58
54
43
64
61
48
68
66
54
58
55
48
74
82
80
90
103
113
104
110
114
93
94
93
95
98
100
91
98
98
86
86
79
80
75
54
84
77
54
110
103
78
94
88
64
100
95
75
107
102
83
116
112
94
95
94
80
99
97
80
124
120
99
108
104
90
96
96
90
80
79
74
85
84
78
88
91
86
112
108
93
122
115
93
109
106
95
98
100
94
100
101
95
116
115
96
121
114
95
133
124
95
125
116
97
106
100
85
110
106
86
109
108
92
119
120
110
98
97
85
96
91
67
97
86
63
100
89
68
87
75
59
91
83
60
96
89
66
92
84
65
100
98
83
105
108
99
108
114
109
109
110
100
96
101
91
106
111
111
104
107
103
94
98
97
103
113
115
103
106
99
94
88
75
94
91
80
82
80
71
76
71
60
78
70
53
88
78
57
95
93
76
94
95
90
89
92
82
83
86
76
88
87
76
87
85
78
72
70
58
69
70
66
71
72
68
76
78
77
77
86
93
77
78
76
59
54
43
48
43
34
68
65
51
62
60
45
49
47
38
58
59
54
76
81
81
75
79
75
71
75
79
75
76
82
72
74
74
57
53
53
66
57
43
66
58
40
84
76
56
64
57
38
77
71
53
72
62
44
90
83
65
70
67
54
69
66
51
86
81
62
66
59
42
69
64
51
62
57
48
74
72
65
78
78
73
85
81
67
87
79
59
85
83
76
76
78
74
75
77
72
76
76
61
87
81
65
93
84
63
91
84
68
84
80
67
76
74
60
74
72
61
66
68
61
69
70
65
62
58
46
61
53
42
59
52
38
61
53
41
73
66
49
63
57
42
56
51
40
72
71
64
77
81
76
68
74
72
79
82
79
66
72
69
62
69
69
68
72
67
65
69
69
72
79
81
65
66
60
63
58
48
65
61
54
53
51
45
53
50
41
45
41
29
60
53
39
57
56
47
59
62
65
63
67
66
59
64
66
62
66
66
62
67
68
45
47
44
